<svg width="1000" height="1000" viewBox="0 0 1000 1000" fill="none" xmlns="http://www.w3.org/2000/svg">
<circle cx="500" cy="500" r="500" fill="#D9D9D9"/>
<path d="M325 321.887C328.094 320.1 331.906 320.1 335 321.887L411.603 366.113C414.697 367.9 416.603 371.201 416.603 374.774V463.227C416.603 466.799 414.697 470.1 411.603 471.887L335 516.113C331.906 517.9 328.094 517.9 325 516.113L248.397 471.887C245.303 470.1 243.397 466.799 243.397 463.226V374.773C243.397 371.201 245.303 367.9 248.397 366.113L325 321.887Z" fill="#3D679D"/>
<path d="M425 491.887C428.094 490.1 431.906 490.1 435 491.887L511.603 536.113C514.697 537.9 516.603 541.201 516.603 544.774V633.227C516.603 636.799 514.697 640.1 511.603 641.887L435 686.113C431.906 687.9 428.094 687.9 425 686.113L348.397 641.887C345.303 640.1 343.397 636.799 343.397 633.226V544.773C343.397 541.201 345.303 537.9 348.397 536.113L425 491.887Z" fill="#1C385E"/>
<path d="M517 321.887C520.094 320.1 523.906 320.1 527 321.887L603.603 366.113C606.697 367.9 608.603 371.201 608.603 374.774V463.227C608.603 466.799 606.697 470.1 603.603 471.887L527 516.113C523.906 517.9 520.094 517.9 517 516.113L440.397 471.887C437.303 470.1 435.397 466.799 435.397 463.226V374.773C435.397 371.201 437.303 367.9 440.397 366.113L517 321.887Z" fill="#3D679D"/>
<path d="M616.603 481.887C619.697 480.1 623.509 480.1 626.603 481.887L703.205 526.113C706.299 527.9 708.205 531.201 708.205 534.774V623.227C708.205 626.799 706.299 630.1 703.205 631.887L626.603 676.113C623.509 677.9 619.697 677.9 616.603 676.113L540 631.887C536.906 630.1 535 626.799 535 623.226V534.773C535 531.201 536.906 527.9 540 526.113L616.603 481.887Z" fill="#3D679D"/>
<path d="M525 653.887C528.094 652.1 531.906 652.1 535 653.887L611.603 698.113C614.697 699.9 616.603 703.201 616.603 706.774V795.227C616.603 798.799 614.697 802.1 611.603 803.887L535 848.113C531.906 849.9 528.094 849.9 525 848.113L448.397 803.887C445.303 802.1 443.397 798.799 443.397 795.226V706.773C443.397 703.201 445.303 699.9 448.397 698.113L525 653.887Z" fill="#1C385E"/>
<path d="M423 151.887C426.094 150.1 429.906 150.1 433 151.887L509.603 196.113C512.697 197.9 514.603 201.201 514.603 204.774V293.227C514.603 296.799 512.697 300.1 509.603 301.887L433 346.113C429.906 347.9 426.094 347.9 423 346.113L346.397 301.887C343.303 300.1 341.397 296.799 341.397 293.226V204.773C341.397 201.201 343.303 197.9 346.397 196.113L423 151.887Z" fill="#1C385E"/>
<path d="M700 666.887C703.094 665.1 706.906 665.1 710 666.887L764.952 698.613C768.046 700.4 769.952 703.701 769.952 707.274V770.727C769.952 774.299 768.046 777.6 764.952 779.387L710 811.113C706.906 812.9 703.094 812.9 700 811.113L645.048 779.387C641.954 777.6 640.048 774.299 640.048 770.726V707.273C640.048 703.701 641.954 700.4 645.048 698.613L700 666.887Z" fill="#3D679D"/>
<path d="M692 356.887C695.094 355.1 698.906 355.1 702 356.887L756.952 388.613C760.046 390.4 761.952 393.701 761.952 397.274V460.727C761.952 464.299 760.046 467.6 756.952 469.387L702 501.113C698.906 502.9 695.094 502.9 692 501.113L637.048 469.387C633.954 467.6 632.048 464.299 632.048 460.726V397.273C632.048 393.701 633.954 390.4 637.048 388.613L692 356.887Z" fill="#1C385E"/>
<path d="M250 506.887C253.094 505.1 256.906 505.1 260 506.887L314.952 538.613C318.046 540.4 319.952 543.701 319.952 547.274V610.727C319.952 614.299 318.046 617.6 314.952 619.387L260 651.113C256.906 652.9 253.094 652.9 250 651.113L195.048 619.387C191.954 617.6 190.048 614.299 190.048 610.726V547.273C190.048 543.701 191.954 540.4 195.048 538.613L250 506.887Z" fill="#3D679D"/>
<path d="M772.301 474.887C775.395 473.1 779.207 473.1 782.301 474.887L815.603 494.113C818.697 495.9 820.603 499.201 820.603 502.774V541.226C820.603 544.799 818.697 548.1 815.603 549.887L782.301 569.113C779.207 570.9 775.395 570.9 772.301 569.113L739 549.887C735.906 548.1 734 544.799 734 541.226V502.774C734 499.201 735.906 495.9 739 494.113L772.301 474.887Z" fill="#3D679D"/>
<path d="M566.301 201.887C569.395 200.1 573.207 200.1 576.301 201.887L609.603 221.113C612.697 222.9 614.603 226.201 614.603 229.774V268.226C614.603 271.799 612.697 275.1 609.603 276.887L576.301 296.113C573.207 297.9 569.395 297.9 566.301 296.113L533 276.887C529.906 275.1 528 271.799 528 268.226V229.774C528 226.201 529.906 222.9 533 221.113L566.301 201.887Z" fill="#3D679D"/>
<path d="M311 641.887C314.094 640.1 317.906 640.1 321 641.887L354.301 661.113C357.395 662.9 359.301 666.201 359.301 669.774V708.226C359.301 711.799 357.395 715.1 354.301 716.887L321 736.113C317.906 737.9 314.094 737.9 311 736.113L277.699 716.887C274.605 715.1 272.699 711.799 272.699 708.226V669.774C272.699 666.201 274.605 662.9 277.699 661.113L311 641.887Z" fill="#3D679D"/>
</svg>
